# xmcd
#
# Track frame offsets:
#	150
#	18809
#	34412
#	56407
#	69950
#	91356
#	109340
#	123395
#	137951
#	153563
#	173973
#	188039
#	204529
#	225091
#	240818
#	257468
#
# Disc length: 3855 seconds
#
# Revision: 0
# Processed by: cddbd v1.5.2PL0 Copyright (c) Steve Scherf et al.
# Submitted via: MusicManager 7.3.0.0 
#
DISCID=ca0f0d10
DTITLE=DANIEL O'DONNELL - MOON OVER IRELAND
DYEAR=2011
DGENRE=country
TTITLE0=MOON OVER IRELAND
TTITLE1=WHEN YOU WERE SWEET SIXTEEN
TTITLE2=THE FIELDS OF ATHENRY
TTITLE3=TIPPERARY GIRL
TTITLE4=THE GALWAY GIRL
TTITLE5=MY FATHER'S HOUSE
TTITLE6=MY WILD IRISH ROSE
TTITLE7=MOONLIGHT IN MAYO
TTITLE8=MAGGIE
TTITLE9=SONNY
TTITLE10=TWO LITTLE ORPHANS
TTITLE11=COTTAGE BY THE LEE
TTITLE12=RED IS THE ROSE
TTITLE13=THE BOYS FROM KILLYBEGS
TTITLE14=MY LOVELY DONEGAL
TTITLE15=THE TOWN I LOVED SO WELL
EXTD=
EXTT0=
EXTT1=
EXTT2=
EXTT3=
EXTT4=
EXTT5=
EXTT6=
EXTT7=
EXTT8=
EXTT9=
EXTT10=
EXTT11=
EXTT12=
EXTT13=
EXTT14=
EXTT15=
PLAYORDER=
